<svg xmlns="http://www.w3.org/2000/svg" xmlns:xlink="http://www.w3.org/1999/xlink" xml:space="preserve" viewBox="0 0 512 512">
  <defs>
    <circle id="a" cx="256" cy="256" r="200"/>
  </defs>
  <use xlink:href="#a" style="overflow:visible;fill:#eee"/>
  <path d="M256 126.984c35.795 0 72.119 7.066 108.011 21.004 13.938 35.893 21.003 72.216 21.003 108.012s-7.065 72.119-21.003 108.011C328.119 377.95 291.795 385.015 256 385.015s-72.119-7.065-108.011-21.004c-13.938-35.893-21.003-72.216-21.003-108.011s7.065-72.119 21.003-108.012c35.892-13.938 72.216-21.004 108.011-21.004m0-8c-38.06 0-76.12 7.612-114.179 22.836-30.447 76.119-30.447 152.239 0 228.358 38.06 15.224 76.119 22.836 114.179 22.836s76.12-7.612 114.179-22.836c30.447-76.119 30.447-152.239 0-228.358C332.12 126.597 294.06 118.984 256 118.984z" style="fill:#424242"/>
  <path d="M256 70c49.683 0 96.391 19.347 131.522 54.478S442 206.317 442 256s-19.347 96.391-54.478 131.522S305.683 442 256 442s-96.391-19.347-131.522-54.478S70 305.683 70 256s19.347-96.391 54.478-131.522S206.317 70 256 70m0-14C145.543 56 56 145.543 56 256s89.543 200 200 200 200-89.543 200-200S366.457 56 256 56z" style="fill:#424242"/>
  <path d="m366.852 367.542 8.5 40.342" style="fill:#eee;stroke:#424242;stroke-width:8;stroke-miterlimit:10"/>
  <path d="M124.661 290.718s64.766 13.012 131.054 13.012 131.624-13.012 131.624-13.012M124.661 221.881s64.766-13.012 131.054-13.012 131.624 13.012 131.624 13.012" style="fill:none;stroke:#424242;stroke-width:5;stroke-miterlimit:10"/>
  <path d="m145.352 367.542-8.5 40.342M145.018 145.553l-8.5-40.341M366.518 145.553l8.5-40.341" style="fill:#eee;stroke:#424242;stroke-width:8;stroke-miterlimit:10"/>
  <path d="M221.583 387.959s-13.013 41.217-13.013 60.007M303.583 448.227c0-18.79-13.012-60.268-13.012-60.268M290.494 127.137s13.013-41.217 13.013-60.007M208.494 66.869c0 18.79 13.012 60.268 13.012 60.268" style="fill:none;stroke:#424242;stroke-width:5;stroke-miterlimit:10"/>
</svg>
